# xmcd
#
# Track frame offsets: 
#        150
#        28652
#        61710
#        89979
#        118070
#        144512
#        167211
#        196840
#        213919
#        246960
#        253704
#        285740
#        302745
#
# Disc length: 4439 seconds
#
# Revision: 5
# Processed by: cddbd v1.5.2PL0 Copyright (c) Steve Scherf et al.
# Submitted via: ExactAudioCopy v1.1
#
DISCID=c111550d
DTITLE=Leonard Cohen - Live In London [Disc 1]
DYEAR=2009
DGENRE=Pop
TTITLE0=Dance Me To The End Of Love
TTITLE1=The Future
TTITLE2=Aint No Cure For Love
TTITLE3=Bird On The Wire
TTITLE4=Everybody Knows
TTITLE5=In My Secret Life
TTITLE6=Who By Fire
TTITLE7=Hey, Thats No Way To Say Goodbye
TTITLE8=Anthem
TTITLE9=Introduction
TTITLE10=Tower Of Song
TTITLE11=Suzanne
TTITLE12=The Gypsy's Wife
EXTD=YEAR: 2009
EXTT0=
EXTT1=
EXTT2=
EXTT3=
EXTT4=
EXTT5=
EXTT6=
EXTT7=
EXTT8=
EXTT9=
EXTT10=
EXTT11=
EXTT12=
PLAYORDER=
